<?xml version="1.0" encoding="UTF-8"?>
<svg version="1.1" xmlns="http://www.w3.org/2000/svg" width="512" height="512">
<path d="M0 0 C168.96 0 337.92 0 512 0 C512 168.96 512 337.92 512 512 C343.04 512 174.08 512 0 512 C0 343.04 0 174.08 0 0 Z " fill="#000000" transform="translate(0,0)"/>
<path d="M0 0 C0.66 0 1.32 0 2 0 C3.19824219 1.53442383 3.19824219 1.53442383 4.546875 3.70703125 C5.05476562 4.51164795 5.56265625 5.31626465 6.0859375 6.14526367 C6.63507813 7.02545166 7.18421875 7.90563965 7.75 8.8125 C14.38602612 19.23243731 21.55225177 29.15015875 29 39 C29.56251465 39.74942871 30.1250293 40.49885742 30.70458984 41.27099609 C37.076056 49.75826988 43.60611539 58.04507832 50.5234375 66.09375 C52.71833973 68.66947123 54.84170965 71.28110729 56.9375 73.9375 C64.33479891 83.2408514 71.96818353 92.28534196 80.55078125 100.5234375 C82.54315261 102.53805224 84.38809359 104.57825384 86.234375 106.72265625 C90.26803827 111.37475302 94.57413133 115.72122434 98.9375 120.0625 C99.69740234 120.82626953 100.45730469 121.59003906 101.24023438 122.37695312 C105.44883361 126.57836432 109.74410186 130.6125321 114.2512207 134.49194336 C116.42111124 136.36314451 118.52030107 138.30602353 120.625 140.25 C124.6134842 143.84637515 128.71828278 147.24401454 132.9375 150.5625 C133.47391113 150.98499023 134.01032227 151.40748047 134.56298828 151.84277344 C135.10810059 152.26719727 135.65321289 152.69162109 136.21484375 153.12890625 C136.75653198 153.55919632 137.29822021 153.98948639 137.85632324 154.43281555 C140.04298139 156.08933158 140.04298139 156.08933158 142.73812866 157.58763123 C150.41737221 162.31547509 150.41737221 162.31547509 151.96846008 166.80006409 C152.27170195 170.11588371 152.23984981 173.26826028 152.07421875 176.59375 C152.05865433 177.78101685 152.0430899 178.96828369 152.02705383 180.19152832 C151.965728 183.96419309 151.82779773 187.72952854 151.6875 191.5 C151.63229519 194.06499997 151.58211 196.63011322 151.53710938 199.1953125 C151.4161746 205.46602004 151.2324016 211.73248659 151 218 C149.56384276 217.05285193 148.12904759 216.10363835 146.69482422 215.15356445 C145.49610184 214.36101006 145.49610184 214.36101006 144.27316284 213.55244446 C141.40553928 211.59401622 138.76471087 209.44209724 136.125 207.1875 C132.3105391 203.94792109 128.46670656 200.75632142 124.5625 197.625 C119.17001619 193.22996984 114.09293282 188.53863814 109.01171875 183.79296875 C106.59346824 181.5376955 104.13145939 179.34489735 101.625 177.1875 C98.51867294 174.50358143 95.63742213 171.65787017 92.76171875 168.73046875 C91.00558424 167.00548519 89.18635605 165.40817536 87.3125 163.8125 C79.50621482 157.06932759 72.24622515 149.63607319 65.56640625 141.78125 C63.99226653 139.99120583 62.3391685 138.34309782 60.625 136.6875 C56.88144044 133.01064083 53.66703957 128.96861363 50.3828125 124.8828125 C48.02983072 122.03609028 45.57735397 119.32905928 43.0625 116.625 C37.63239911 110.70887157 32.78517151 104.43504371 28 98 C27.56042969 97.41202637 27.12085938 96.82405273 26.66796875 96.21826172 C20.38398418 87.79962389 14.33110022 79.23601268 8.41015625 70.55859375 C8.00297363 69.96288574 7.59579102 69.36717773 7.17626953 68.75341797 C6.3898308 67.58110518 5.61992102 66.39753961 4.86669922 65.20361328 C3.95837322 63.77133367 2.98498599 62.3806823 2 61 C1.34 61 0.68 61 0 61 C-1.35286143 62.57785205 -1.35286143 62.57785205 -2.6875 64.6640625 C-3.21617676 65.44950439 -3.74485352 66.23494629 -4.28955078 67.04418945 C-4.85399902 67.89585693 -5.41844727 68.74752441 -6 69.625 C-7.18388047 71.38219493 -8.36878442 73.13870072 -9.5546875 74.89453125 C-10.14088867 75.7654541 -10.72708984 76.63637695 -11.33105469 77.53369141 C-21.22908963 92.16065878 -32.09728415 105.96077859 -43.59521484 119.35693359 C-45.01599182 121.01870437 -46.42502753 122.68983978 -47.83203125 124.36328125 C-59.38434942 138.05737617 -71.7937561 150.88162252 -84.4375 163.5625 C-84.95187622 164.07955505 -85.46625244 164.59661011 -85.99621582 165.1293335 C-91.27367912 170.42766383 -96.57806397 175.6425617 -102.26342773 180.50854492 C-104.84690306 182.72736268 -107.32057691 185.05385206 -109.8125 187.375 C-120.6984425 197.41600161 -132.35650369 206.96083039 -144.70849609 215.15356445 C-145.51370697 215.68826859 -146.31891785 216.22297272 -147.14852905 216.77388 C-147.75951447 217.1784996 -148.37049988 217.5831192 -149 218 C-149.3311654 210.49393093 -149.55787733 202.98975783 -149.71411133 195.47802734 C-149.77926488 192.92653026 -149.86782036 190.3755145 -149.98071289 187.82568359 C-150.94699552 165.43066259 -150.94699552 165.43066259 -146.2746582 160.23095703 C-143.140054 157.54583497 -139.69775563 155.7995652 -136 154 C-133.97765016 152.52264117 -133.97765016 152.52264117 -132.37890625 151.0390625 C-131.44949219 150.24242187 -130.52007812 149.44578125 -129.5625 148.625 C-129.07133194 148.20232849 -128.58016388 147.77965698 -128.07411194 147.34417725 C-125.36949239 145.01916676 -122.65623352 142.70749189 -119.90966797 140.43212891 C-110.71956606 132.76830086 -102.22429328 124.50131459 -93.80200195 116.0078125 C-91.54634308 113.73371098 -89.28259723 111.46790026 -87.01757812 109.203125 C-85.55421247 107.73484829 -84.09130522 106.26611453 -82.62890625 104.796875 C-81.96524551 104.13210144 -81.30158478 103.46732788 -80.61781311 102.78240967 C-76.75913216 98.88495985 -73.07286345 94.88179124 -69.49116516 90.7280426 C-67.57696851 88.5097683 -65.60186663 86.34993457 -63.625 84.1875 C-58.89393922 78.93873055 -54.4394056 73.49574938 -50 68 C-48.96556556 66.73378497 -47.93036378 65.46819657 -46.89453125 64.203125 C-31.75003249 45.68720437 -17.45988943 26.66751501 -4.49316406 6.55273438 C-3.93467773 5.69744141 -3.37619141 4.84214844 -2.80078125 3.9609375 C-2.30747314 3.19571777 -1.81416504 2.43049805 -1.3059082 1.64208984 C-0.8749585 1.1002002 -0.44400879 0.55831055 0 0 Z " fill="#00FE40" transform="translate(255,255)"/>
<path d="M0 0 C0.66 0 1.32 0 2 0 C3.5203763 2.26360284 4.92624952 4.53052568 6.3125 6.875 C14.86845932 20.94822019 24.85934461 34.04069599 35 47 C35.85698415 48.10400111 36.71375011 49.20817163 37.5703125 50.3125 C44.86696903 59.69027354 52.40325451 68.86450571 60 78 C60.5165918 78.62390625 61.03318359 79.2478125 61.56542969 79.890625 C66.50874666 85.85502057 71.48410998 91.67776038 77.06567383 97.06494141 C78.80839912 98.80832657 80.39990266 100.59371644 81.98828125 102.4765625 C86.53414287 107.70967344 91.43413319 112.58414089 96.3425293 117.47290039 C97.93458966 119.05959946 99.5212299 120.65157742 101.10742188 122.24414062 C106.56695662 127.70751186 112.11960768 132.98809143 118 138 C119.14578342 139.0205771 120.28905146 140.04398571 121.4296875 141.0703125 C121.95717087 141.53774872 122.48465424 142.00518494 123.02812195 142.48678589 C124.24423221 143.5654976 125.4540707 144.65132829 126.65701294 145.7447052 C130.16212915 148.84206508 133.52024754 151.40088405 137.69140625 153.53735352 C143.73054892 156.78147573 149.71188897 160.05790954 151.94537354 166.89318848 C153.25528915 175.17993458 152.64116373 183.47867401 152.125 191.8125 C152.03458922 194.35453351 151.9524809 196.89687663 151.87890625 199.43945312 C151.68171562 205.63312055 151.38171411 211.81510613 151 218 C149.5732634 217.05621009 148.14751152 216.11093149 146.72216797 215.16503906 C145.9280954 214.63879944 145.13402283 214.11255981 144.31588745 213.57037354 C141.14823817 211.42243124 138.12335219 209.12635126 135.125 206.75 C134.52840576 206.27965332 133.93181152 205.80930664 133.31713867 205.32470703 C128.57442294 201.54496962 124.09043058 197.52779764 119.6484375 193.3984375 C116.98723197 190.98843721 114.24292333 188.73962366 111.4375 186.5 C106.83705598 182.7908101 102.67561461 178.81316126 98.58203125 174.5546875 C96.5562561 172.55036534 94.51819752 170.69975187 92.359375 168.84765625 C87.14502466 164.32818657 82.30428057 159.45012332 77.4375 154.5625 C76.0772168 153.20801758 76.0772168 153.20801758 74.68945312 151.82617188 C70.14881526 147.2789486 65.74220057 142.68028921 61.55786133 137.80297852 C59.15768383 135.02515203 56.63590683 132.36481512 54.125 129.6875 C49.69659845 124.92178821 45.46001536 120.0559814 41.390625 114.9765625 C39.62974561 112.78409502 37.85135814 110.61686851 36.046875 108.4609375 C26.2239282 96.66256057 17.38323469 84.22903622 8.96484375 71.39453125 C8.50295654 70.69142822 8.04106934 69.9883252 7.56518555 69.26391602 C6.70897123 67.95281302 5.85978148 66.63708687 5.01879883 65.31616211 C4.06288538 63.84350514 3.03825829 62.41580676 2 61 C1.34 61 0.68 61 0 61 C-1.54558019 63.11516651 -2.96937235 65.23123647 -4.375 67.4375 C-5.27803828 68.82156033 -6.18306556 70.20432451 -7.08984375 71.5859375 C-7.56534668 72.31135742 -8.04084961 73.03677734 -8.53076172 73.78417969 C-16.14563933 85.26849826 -24.34858639 96.28114079 -33 107 C-33.78246094 107.97710937 -34.56492187 108.95421875 -35.37109375 109.9609375 C-39.72367316 115.34697163 -44.22868315 120.55568304 -48.890625 125.67578125 C-50.74626657 127.72042335 -52.56756376 129.78784149 -54.375 131.875 C-63.41931496 142.2222748 -72.90506908 152.06572611 -82.63500977 161.76538086 C-84.69860061 163.82357157 -86.75673675 165.8871098 -88.81445312 167.95117188 C-90.1507209 169.28677934 -91.48729857 170.62207684 -92.82421875 171.95703125 C-93.42650803 172.56134476 -94.0287973 173.16565826 -94.64933777 173.7882843 C-98.93880183 178.054617 -103.41966875 182.04983067 -108 186 C-109.15650222 187.02168078 -110.31169772 188.04484518 -111.46484375 189.0703125 C-120.01567915 196.61444861 -128.85887653 203.66925752 -137.99169922 210.49560547 C-139.41457099 211.561462 -140.83237665 212.63409697 -142.24658203 213.71142578 C-142.97087402 214.26169434 -143.69516602 214.81196289 -144.44140625 215.37890625 C-145.09955322 215.88107666 -145.7577002 216.38324707 -146.43579102 216.90063477 C-148 218 -148 218 -149 218 C-149.3311654 210.49393093 -149.55787733 202.98975783 -149.71411133 195.47802734 C-149.77926488 192.92653026 -149.86782036 190.3755145 -149.98071289 187.82568359 C-150.9471044 165.42813927 -150.9471044 165.42813927 -146.23950195 160.19580078 C-143.13577168 157.53349831 -139.66331173 155.79931523 -136 154 C-134.15066143 152.58867466 -132.33095856 151.13643861 -130.5625 149.625 C-129.67433594 148.89152344 -128.78617188 148.15804687 -127.87109375 147.40234375 C-111.28497272 133.52416085 -94.62979895 119.29891645 -80.57421875 102.79296875 C-78.9523281 100.94570371 -77.25339795 99.22243286 -75.5 97.5 C-71.78798793 93.83715365 -68.39154334 89.9589256 -65 86 C-64.057562 84.90992247 -63.11483018 83.82009893 -62.171875 82.73046875 C-57.06079612 76.8117353 -52.01125126 70.8641382 -47.16796875 64.72265625 C-45.5013706 62.6296492 -43.81734611 60.55827117 -42.11328125 58.49609375 C-31.83782638 46.04066161 -22.10236789 33.25525767 -13.18359375 19.7890625 C-12.56917168 18.86167015 -12.56917168 18.86167015 -11.94233704 17.9155426 C-9.9029332 14.83076998 -7.87608076 11.73848586 -5.86450195 8.63549805 C-5.12323711 7.50307447 -4.38194606 6.37066803 -3.640625 5.23828125 C-2.98610352 4.22805908 -2.33158203 3.21783691 -1.65722656 2.17700195 C-1.1103418 1.45859131 -0.56345703 0.74018066 0 0 Z " fill="#00FE40" transform="translate(255,147)"/>
<path d="M0 0 C0.66 0 1.32 0 2 0 C3.47363281 1.90161133 3.47363281 1.90161133 5.203125 4.58203125 C5.84668945 5.5676001 6.49025391 6.55316895 7.15332031 7.56860352 C7.84522461 8.63908936 8.53712891 9.7095752 9.25 10.8125 C10.70488763 13.02843351 12.16191119 15.24263071 13.625 17.453125 C13.99361145 18.01020645 14.3622229 18.5672879 14.74200439 19.14125061 C23.35069993 32.09276998 32.90814715 44.36091924 42.71728516 56.41748047 C44.51762608 58.63860911 46.28830434 60.8829637 48.0625 63.125 C55.12447214 71.95246518 62.49130273 80.55057756 70 89 C70.95712891 90.07894531 70.95712891 90.07894531 71.93359375 91.1796875 C89.69886415 111.1149814 89.69886415 111.1149814 109.1484375 129.36328125 C110.95928007 130.96400496 112.63408243 132.63692304 114.3125 134.375 C121.97309706 142.13911864 130.96874223 148.60357337 139.54296875 155.32421875 C140.06178619 155.74302811 140.58060364 156.16183746 141.11514282 156.59333801 C142.97228154 158.04447494 142.97228154 158.04447494 145.06013489 159.14561462 C148.44746569 161.17179237 150.63891679 162.6704891 151.70158386 166.58323669 C151.92660763 169.81032786 151.89955169 172.94684858 151.78125 176.1796875 C151.76993042 177.3475882 151.75861084 178.51548889 151.74694824 179.71878052 C151.70225992 183.43920781 151.60189745 187.15574308 151.5 190.875 C151.45986388 193.40098591 151.42336337 195.92703238 151.390625 198.453125 C151.30254893 204.63673854 151.16878279 210.81809125 151 217 C146.74022797 214.91290226 143.15624636 212.287883 139.375 209.4375 C138.65932861 208.89955811 137.94365723 208.36161621 137.20629883 207.80737305 C132.37623552 204.13835644 127.80852523 200.2871245 123.3671875 196.15234375 C120.76193022 193.78353721 118.05714094 191.58038222 115.3125 189.375 C111.57357581 186.35025234 108.10620915 183.2429723 104.77748108 179.77642822 C103.03057959 178.03056148 101.22038476 176.42929199 99.34155273 174.82714844 C94.78222181 170.86289846 90.49667775 166.65840211 86.22265625 162.390625 C85.41187119 161.58316833 84.60108612 160.77571167 83.76573181 159.94378662 C82.06101959 158.24410819 80.35763401 156.54309825 78.65551758 154.84082031 C76.07849647 152.26598292 73.49358146 149.69925484 70.90820312 147.1328125 C55.89323167 132.16803406 55.89323167 132.16803406 49.73193359 124.20556641 C47.78819677 121.73027483 45.70107307 119.43302553 43.5625 117.125 C38.78217871 111.87162608 34.50575079 106.2855211 30.23535156 100.62060547 C29.09048607 99.11870484 27.91745367 97.63838895 26.7421875 96.16015625 C20.76826351 88.61681155 15.30086671 80.75254652 9.875 72.8125 C9.48520966 72.24494995 9.09541931 71.6773999 8.69381714 71.09265137 C7.57967455 69.46770948 6.47327161 67.83746917 5.3671875 66.20703125 C4.71862793 65.2528833 4.07006836 64.29873535 3.40185547 63.31567383 C2 61 2 61 2 59 C1.34 59 0.68 59 0 59 C-0.22816406 59.67289063 -0.45632812 60.34578125 -0.69140625 61.0390625 C-2.36098318 64.8167918 -4.57078998 68.00276603 -6.9375 71.375 C-7.42476562 72.07544434 -7.91203125 72.77588867 -8.4140625 73.49755859 C-19.72939695 89.6888132 -31.67129482 105.33580454 -44.55224609 120.31396484 C-46.04703788 122.0547797 -47.53336409 123.80260059 -49.01953125 125.55078125 C-60.7632821 139.30434406 -73.23805801 152.31604033 -86 165.125 C-86.87205078 166.00172363 -87.74410156 166.87844727 -88.64257812 167.78173828 C-93.05295824 172.18111783 -97.5271038 176.43465352 -102.25292969 180.49365234 C-104.6009713 182.51816558 -106.85772456 184.63582033 -109.125 186.75 C-114.31477427 191.4822735 -119.73929054 195.82236325 -125.29296875 200.1171875 C-127.90256985 202.13576396 -130.48425735 204.18473301 -133.05078125 206.2578125 C-134.0557666 207.06919678 -134.0557666 207.06919678 -135.08105469 207.89697266 C-136.36867436 208.93868172 -137.65458221 209.98251155 -138.93847656 211.02880859 C-139.52725586 211.50398926 -140.11603516 211.97916992 -140.72265625 212.46875 C-141.23578369 212.88576172 -141.74891113 213.30277344 -142.27758789 213.73242188 C-144.42946255 215.31605522 -146.69479725 216.65233546 -149 218 C-149.35697129 210.51244916 -149.60091576 203.02710937 -149.76904297 195.53295898 C-149.83916132 192.98817996 -149.93449495 190.44395932 -150.05615234 187.90112305 C-151.09683491 165.57891916 -151.09683491 165.57891916 -146.02124023 159.9753418 C-143.17076945 157.49950144 -140.11823549 155.65268972 -136.75735474 153.95307922 C-133.99865368 152.45693243 -131.69837971 150.4597606 -129.3125 148.4375 C-128.4359375 147.71691406 -127.559375 146.99632812 -126.65625 146.25390625 C-122.95308879 143.11166505 -119.36788787 139.84996174 -115.80078125 136.5546875 C-114.33279392 135.2156865 -112.86008362 133.88083647 -111.34741211 132.5925293 C-105.14717528 127.30554973 -99.41980959 121.57134302 -93.67260742 115.80297852 C-91.941053 114.066064 -90.20421641 112.33456111 -88.46679688 110.60351562 C-83.27500787 105.41446903 -78.13899761 100.23299627 -73.40600586 94.61425781 C-71.89270263 92.87681017 -70.28607599 91.2833275 -68.625 89.6875 C-64.92060273 86.04072668 -61.70536335 82.06231065 -58.44921875 78.015625 C-56.31994385 75.39393405 -54.15235942 72.81722492 -51.95581055 70.25244141 C-46.4863146 63.86385546 -41.29716381 57.30661034 -36.22070312 50.60302734 C-34.23077185 47.98984959 -32.20425377 45.40500445 -30.1875 42.8125 C-20.87208183 30.72997963 -12.01254203 18.33326337 -3.78173828 5.4855957 C-3.31364746 4.765896 -2.84555664 4.04619629 -2.36328125 3.3046875 C-1.74900269 2.3453833 -1.74900269 2.3453833 -1.12231445 1.36669922 C-0.5667688 0.69018311 -0.5667688 0.69018311 0 0 Z " fill="#FE8A19" transform="translate(255,39)"/>
</svg>
